<?xml version="1.0" encoding="UTF-8"?>
<svg xmlns="http://www.w3.org/2000/svg" xmlns:xlink="http://www.w3.org/1999/xlink" width="150px" height="25px" viewBox="0 0 150 25" version="1.1">
<g id="surface1">
<path style=" stroke:none;fill-rule:nonzero;fill:rgb(0%,0%,0%);fill-opacity:1;" d="M 0 0 L 7 0 L 7 25 L 0 25 Z M 11.5 9.5 L 18.5 9.5 L 18.5 25 L 11.5 25 Z M 11.5 0 L 18.5 0 L 18.5 6 L 11.5 6 Z M 23 0 L 23 25 L 34.972656 25 C 38.847656 25 42 21.53125 42 17.25 C 42 12.96875 38.851562 9.5 34.972656 9.5 L 30.011719 9.5 L 30.011719 0 Z M 30.011719 15 L 32.984375 15 C 34.085938 15 34.972656 15.902344 34.972656 17 C 34.972656 17.527344 34.765625 18.03125 34.390625 18.40625 C 34.019531 18.777344 33.511719 18.984375 32.984375 18.984375 L 30.011719 18.984375 Z M 30.011719 15 "/>
<path style=" stroke:none;fill-rule:nonzero;fill:rgb(90.588236%,29.019609%,27.058825%);fill-opacity:1;" d="M 52.011719 0 C 48.144531 0 45 3.46875 45 7.75 L 45 17.0625 C 45 17.125 45 17.183594 45 17.25 C 45 21.53125 48.144531 25 52.011719 25 L 69.488281 25 C 73.355469 25 76.5 21.53125 76.5 17.25 C 76.5 12.96875 73.355469 9.5 69.488281 9.5 L 59.992188 9.5 L 59.992188 15 L 67.503906 15 C 68.601562 15 69.488281 15.902344 69.488281 17 C 69.488281 17.527344 69.28125 18.03125 68.910156 18.40625 C 68.535156 18.777344 68.03125 18.984375 67.503906 18.984375 L 53.996094 18.984375 C 52.921875 18.988281 52.042969 18.136719 52.011719 17.0625 L 52.011719 7.90625 C 52.0625 6.847656 52.9375 6.015625 53.996094 6.015625 L 59.992188 6.015625 L 59.992188 6.03125 L 75.484375 6.03125 L 75.484375 0 Z M 80 0 L 80 6.027344 L 102.566406 6.027344 C 103.621094 6.027344 104.492188 6.863281 104.535156 7.917969 L 104.535156 17.066406 C 104.507812 18.136719 103.632812 18.988281 102.566406 18.988281 L 86.949219 18.988281 L 86.949219 9.507812 L 80 9.507812 L 80 25 L 104.535156 25 C 108.378906 25 111.5 21.53125 111.5 17.253906 C 111.5 17.191406 111.5 17.132812 111.5 17.066406 L 111.5 7.761719 C 111.5 3.484375 108.378906 0.015625 104.535156 0.015625 L 97.03125 0.015625 L 97.03125 0 Z M 80 0 "/>
<path style=" stroke:none;fill-rule:nonzero;fill:rgb(90.588236%,29.019609%,27.058825%);fill-opacity:1;" d="M 111.496094 0 L 121.21875 0 L 130.75 9.53125 L 140.28125 0 L 150 0 L 137.5 12.5 L 150 25 L 140.28125 25 L 130.75 15.46875 L 121.21875 25 L 111.5 25 L 123.996094 12.5 Z M 111.496094 0 "/>
</g>
</svg>
